<?xml version="1.0" standalone="no"?>
<!DOCTYPE svg PUBLIC "-//W3C//DTD SVG 20010904//EN"
 "http://www.w3.org/TR/2001/REC-SVG-20010904/DTD/svg10.dtd">
<svg version="1.0" xmlns="http://www.w3.org/2000/svg"
 width="128.000000pt" height="128.000000pt" viewBox="0 0 128.000000 128.000000"
 preserveAspectRatio="xMidYMid meet">
<metadata>
Created by potrace 1.16, written by Peter Selinger 2001-2019
</metadata>
<g transform="translate(0.000000,128.000000) scale(0.100000,-0.100000)"
fill="#000000" stroke="none">
<path d="M162 1249 c-69 -34 -104 -71 -138 -144 -24 -50 -24 -51 -24 -466 l0
-416 31 -61 c34 -69 71 -104 144 -138 50 -24 51 -24 465 -24 414 0 415 0 465
24 73 34 110 69 144 138 l31 61 0 416 c0 415 0 416 -24 466 -34 73 -69 110
-138 144 l-61 31 -417 0 -417 0 -61 -31z m511 -179 c64 -51 87 -78 121 -142
l39 -73 -21 -45 c-48 -104 -63 -149 -127 -393 -13 -49 -26 -91 -29 -94 -9 -9
-36 18 -36 35 0 34 -65 255 -107 364 -30 77 -43 123 -38 138 16 51 79 148 118
182 44 39 59 45 80 28z m344 -813 c17 -16 16 -18 -9 -42 l-27 -25 -338 0 -338
1 -18 25 c-22 30 -11 50 31 57 15 3 174 4 354 3 298 -1 329 -3 345 -19z"/>
</g>
</svg>
